<?xml version="1.0" encoding="UTF-8"?>
<svg id="Layer_1" data-name="Layer 1" xmlns="http://www.w3.org/2000/svg" viewBox="0 0 1141.14 1069.19">
  <defs>
    <style>
      .cls-1 {
        fill: #ff647e;
      }

      .cls-2 {
        fill: #fff;
      }

      .cls-3 {
        fill: #303030;
      }

      .cls-4 {
        fill: #f2f2f2;
      }

      .cls-5 {
        fill: none;
        stroke: #666;
        stroke-linecap: round;
        stroke-linejoin: round;
        stroke-width: 13.33px;
      }

      .cls-6 {
        fill: #444;
      }

      .cls-7 {
        fill: #bcb5b5;
      }

      .cls-8 {
        fill: #dbdcdd;
      }

      .cls-9 {
        fill: #5ec3ea;
      }
    </style>
  </defs>
  <path class="cls-9" d="M762.46,159.3c93.88,15.12,221.18,9.55,295.97,61.28,74.79,50.94,95.47,159.18,75.58,256.28-19.09,97.1-79.56,182.26-127.3,278.56-48.54,96.3-85.93,203.75-159.92,230.01-73.99,27.06-185.38-27.06-306.31-10.34-120.93,16.71-251.41,104.26-353.25,93.12-101.05-10.35-174.24-119.39-185.38-232.4-11.93-113.02,36.6-230.81,65.24-331.09,28.64-101.08,36.6-185.44,75.58-251.5,38.98-66.06,109-113.81,182.2-140.08,72.4-26.27,148.78-31.84,216.41-17.51,68.42,15.13,127.3,49.34,221.18,63.67Z"/>
  <path class="cls-4" d="M1007.17,429.54c-7.3-41.23-19.62-77.54-37.66-110.99-17.3-32.07-40.13-62.53-71.82-95.84-.63-.66-1.42-1.12-2.29-1.35l-443.85-115.8c-25.65-6.69-51.97,8.74-58.66,34.4l-187.89,720.63c-.32,1.24-.14,2.56.51,3.67s1.71,1.91,2.95,2.23l562.57,146.78c6.87,1.79,13.83,2.68,20.74,2.68,14.34,0,28.47-3.81,41.17-11.25,18.82-11.04,32.21-28.74,37.72-49.86l136.42-523.23c.18-.68.2-1.38.08-2.07Z"/>
  <path class="cls-8" d="M773.7,1012.68l-574.81-148.88c-28.08-7.33-50.33-28.74-58.74-56.53-6.96-23.02,13.97-44.79,37.23-38.72l545.48,142.32c10.89,2.84,17.41,13.97,14.57,24.85-9.24,35.45-.6,63.59,34.83,72.85l1.44,4.1Z"/>
  <path class="cls-8" d="M1007.26,428.41c.69,4.11-4.38,6.64-7.24,3.61-14.74-15.59-35-26.24-56.44-29.24-20.64-2.89-42.08,1.35-59.95,11.45-6.17,3.49-13.8-1.01-13.7-8.09.66-46.61-5.3-93.82,5.1-139.09,3.53-15.33,9.05-30.48,18.43-43.12,1.35-1.82,3.99-2.05,5.66-.51,58.82,54.22,95.17,127.48,108.15,204.99Z"/>
  <path class="cls-3" d="M740.77,713.34l32.31-37.91,178.96,152.63-32.3,37.91-178.97-152.63Z"/>
  <path class="cls-6" d="M815.9,567.16c0,3.41-.08,6.82-.26,10.22-.17,3.41-.42,6.8-.75,10.19s-.75,6.78-1.25,10.15-1.08,6.73-1.74,10.07c-.67,3.34-1.41,6.67-2.24,9.97s-1.74,6.59-2.72,9.85c-.99,3.27-2.06,6.5-3.21,9.71-1.15,3.21-2.37,6.39-3.68,9.54-1.3,3.15-2.68,6.26-4.14,9.34-1.45,3.08-2.98,6.12-4.59,9.13-1.6,3.01-3.28,5.97-5.04,8.89-1.75,2.92-3.57,5.8-5.46,8.64-1.9,2.83-3.85,5.62-5.89,8.35-2.03,2.74-4.13,5.43-6.29,8.06-2.16,2.64-4.39,5.22-6.67,7.74-2.29,2.53-4.64,4.99-7.05,7.41s-4.88,4.76-7.4,7.05c-2.53,2.29-5.1,4.51-7.74,6.68-2.63,2.16-5.32,4.26-8.05,6.29-2.74,2.03-5.52,3.99-8.35,5.89-2.83,1.89-5.71,3.71-8.64,5.47-2.92,1.75-5.89,3.43-8.89,5.04-3.01,1.6-6.05,3.14-9.13,4.59-3.08,1.46-6.19,2.84-9.34,4.14-3.15,1.31-6.32,2.53-9.53,3.68-3.21,1.15-6.44,2.21-9.7,3.2s-6.54,1.9-9.85,2.73c-3.3.83-6.63,1.57-9.97,2.24-3.34.66-6.7,1.24-10.07,1.74s-6.75.92-10.14,1.25c-3.39.34-6.79.59-10.19.76s-6.81.25-10.21.25-6.81-.08-10.21-.25-6.8-.42-10.19-.76c-3.39-.33-6.77-.75-10.14-1.25-3.37-.5-6.72-1.08-10.06-1.74-3.34-.67-6.67-1.41-9.97-2.24-3.31-.83-6.59-1.74-9.85-2.73s-6.49-2.06-9.7-3.2c-3.21-1.15-6.39-2.38-9.53-3.68-3.15-1.3-6.26-2.68-9.34-4.14-3.08-1.46-6.13-2.99-9.13-4.59-3-1.61-5.96-3.29-8.89-5.04-2.93-1.76-5.8-3.58-8.64-5.47-2.83-1.9-5.61-3.85-8.35-5.89-2.73-2.03-5.42-4.13-8.05-6.29-2.64-2.17-5.21-4.39-7.74-6.68-2.52-2.29-4.99-4.64-7.4-7.05s-4.76-4.88-7.05-7.41-4.51-5.1-6.67-7.74c-2.16-2.63-4.26-5.32-6.29-8.06-2.03-2.73-3.99-5.52-5.89-8.35-1.89-2.83-3.71-5.71-5.46-8.64-1.76-2.92-3.43-5.89-5.04-8.89-1.61-3.01-3.14-6.05-4.59-9.13-1.46-3.08-2.84-6.2-4.14-9.34-1.31-3.15-2.53-6.33-3.68-9.54-1.15-3.21-2.22-6.44-3.21-9.71-.99-3.26-1.9-6.54-2.72-9.85s-1.57-6.63-2.24-9.97c-.66-3.34-1.24-6.7-1.74-10.07s-.92-6.76-1.25-10.15-.58-6.79-.75-10.19c-.17-3.4-.26-6.81-.26-10.22s.08-6.81.26-10.21c.17-3.41.42-6.8.75-10.19.33-3.4.75-6.78,1.25-10.15s1.08-6.73,1.74-10.07c.67-3.34,1.41-6.67,2.24-9.97.83-3.31,1.73-6.59,2.72-9.85s2.06-6.49,3.21-9.7c1.15-3.21,2.37-6.39,3.68-9.54,1.3-3.15,2.68-6.26,4.14-9.34,1.45-3.08,2.98-6.13,4.59-9.13,1.6-3.01,3.28-5.97,5.04-8.89,1.75-2.92,3.57-5.8,5.46-8.64,1.9-2.83,3.85-5.62,5.89-8.36,2.03-2.73,4.13-5.42,6.29-8.06,2.16-2.63,4.39-5.21,6.67-7.74,2.29-2.52,4.64-4.99,7.05-7.4,2.41-2.41,4.88-4.76,7.4-7.05,2.53-2.29,5.1-4.52,7.74-6.68,2.63-2.16,5.32-4.26,8.05-6.29,2.74-2.03,5.52-3.99,8.35-5.89,2.83-1.9,5.71-3.72,8.64-5.47,2.92-1.75,5.89-3.43,8.89-5.04,3.01-1.61,6.05-3.14,9.13-4.6,3.08-1.45,6.19-2.83,9.34-4.14,3.15-1.3,6.32-2.53,9.53-3.68s6.44-2.22,9.7-3.21,6.54-1.9,9.85-2.72c3.3-.83,6.63-1.57,9.97-2.24,3.34-.67,6.69-1.24,10.06-1.74,3.38-.5,6.76-.92,10.14-1.26,3.39-.33,6.79-.58,10.19-.75s6.81-.25,10.21-.25,6.81.08,10.21.25,6.8.42,10.19.75c3.39.33,6.77.76,10.14,1.26s6.73,1.08,10.07,1.74c3.34.67,6.67,1.41,9.97,2.24,3.31.83,6.59,1.73,9.85,2.72s6.49,2.06,9.7,3.21,6.39,2.38,9.53,3.68c3.15,1.31,6.26,2.69,9.34,4.14,3.08,1.46,6.13,2.99,9.13,4.6,3,1.6,5.96,3.29,8.89,5.04s5.8,3.57,8.64,5.47c2.83,1.89,5.61,3.85,8.35,5.89,2.73,2.03,5.42,4.13,8.05,6.29,2.64,2.16,5.21,4.39,7.74,6.68,2.52,2.29,4.99,4.64,7.4,7.05,2.41,2.41,4.76,4.88,7.05,7.4,2.29,2.53,4.51,5.11,6.67,7.74,2.16,2.64,4.26,5.32,6.29,8.06,2.03,2.74,3.99,5.53,5.89,8.36,1.89,2.83,3.71,5.71,5.46,8.64,1.76,2.92,3.43,5.89,5.04,8.89,1.61,3.01,3.14,6.05,4.59,9.13,1.46,3.08,2.84,6.2,4.14,9.34,1.31,3.15,2.53,6.33,3.68,9.54,1.15,3.21,2.22,6.44,3.21,9.7.98,3.26,1.9,6.55,2.72,9.85.83,3.3,1.57,6.63,2.24,9.97.66,3.34,1.24,6.7,1.74,10.07s.92,6.75,1.25,10.15c.33,3.39.58,6.79.75,10.19.17,3.4.26,6.81.26,10.21Z"/>
  <path class="cls-7" d="M734.47,675.24c-59.67,70.02-164.78,78.39-234.78,18.69-2.9-2.47-5.69-5.02-8.38-7.65-62.19-60.69-67.51-160.09-10.31-227.2,57.19-67.1,156.1-77.58,225.85-25.81,3.04,2.26,6.01,4.63,8.93,7.11,69.99,59.69,78.36,164.83,18.69,234.85Z"/>
  <path class="cls-2" d="M717.17,660.49c-57.18,67.1-156.11,77.58-225.85,25.8-62.19-60.69-67.51-160.09-10.31-227.2,57.19-67.1,156.1-77.59,225.85-25.81,62.2,60.69,67.52,160.09,10.32,227.21Z"/>
  <path class="cls-6" d="M1064.97,913.87c-.97-12.21-6.64-23.3-15.95-31.25l-119.46-101.88c-9.92-8.46-24.86-7.27-33.32,2.65l-28.8,33.8c-8.45,9.92-7.27,24.87,2.65,33.33l119.46,101.88c8.37,7.14,18.78,10.96,29.66,10.96,1.23,0,2.47-.05,3.71-.15,12.2-.97,23.3-6.64,31.24-15.96,7.94-9.32,11.78-21.17,10.81-33.38Z"/>
  <path class="cls-1" d="M634.63,565.7l51.91-51.92c7.89-7.9,7.89-20.69,0-28.58-7.89-7.89-20.68-7.89-28.57,0l-51.9,51.92-51.9-51.92c-7.89-7.89-20.68-7.89-28.57,0-7.89,7.9-7.89,20.69,0,28.58l51.9,51.92-51.9,51.92c-7.89,7.89-7.89,20.69,0,28.58,3.94,3.95,9.11,5.92,14.28,5.92s10.34-1.97,14.29-5.92l51.9-51.92,51.9,51.92c3.95,3.95,9.11,5.92,14.29,5.92s10.34-1.97,14.29-5.92c7.89-7.89,7.89-20.69,0-28.58l-51.91-51.92Z"/>
  <path class="cls-5" d="M335.41,31.33c6.74,7.99,16.67,20.19,46.29,58.46"/>
  <path class="cls-5" d="M402.69,6.66c1.98,9.45,4.74,23.64,12.22,67.14"/>
  <path class="cls-5" d="M293.96,97.43c10.5,3.44,26.23,8.97,74.28,27.67"/>
</svg>